<?xml version="1.0" encoding="utf-8"?>
<!-- Generator: Adobe Illustrator 25.4.1, SVG Export Plug-In . SVG Version: 6.00 Build 0)  -->
<svg version="1.1" id="レイヤー_1" xmlns="http://www.w3.org/2000/svg" xmlns:xlink="http://www.w3.org/1999/xlink" x="0px"
	 y="0px" width="356.3px" height="238.1px" viewBox="0 0 356.3 238.1" style="enable-background:new 0 0 356.3 238.1;"
	 xml:space="preserve">
<g>
	<path d="M151.2,46.5c0,0,40.1-2.9,67.9-40.1h131.8c0,0-18.5,24.2-18.7,46.5H217.9c0,0-30.7,66.1-44.1,95.1
		c-13.3,29-84.2,78.2-136.7,85.5c0,0,46.8-38.5,71.7-98.3H5.1c0,0,46-10.5,76.7-51.6h50.8L151.2,46.5z"/>
	<path d="M257.1,58.9l-27.9,7.5l-42,99l36.9-29h47.3c8.7-34.8,72-52.8,72-52.8h-97.1L257.1,58.9z"/>
</g>
</svg>
